<svg xmlns="http://www.w3.org/2000/svg" xmlns:xlink="http://www.w3.org/1999/xlink" width="413" zoomAndPan="magnify" viewBox="0 0 309.75 279.749983" height="373" preserveAspectRatio="xMidYMid meet" version="1.0"><defs><g/><clipPath id="c67af84ebe"><path d="M 74.9375 118.683594 L 234.542969 118.683594 L 234.542969 178.632812 L 74.9375 178.632812 Z M 74.9375 118.683594 " clip-rule="nonzero"/></clipPath><clipPath id="2c498cfe41"><path d="M 100 43.734375 L 167 43.734375 L 167 168 L 100 168 Z M 100 43.734375 " clip-rule="nonzero"/></clipPath><clipPath id="9e4c9c21cc"><path d="M 177 66 L 214.585938 66 L 214.585938 105 L 177 105 Z M 177 66 " clip-rule="nonzero"/></clipPath></defs><g clip-path="url(#c67af84ebe)"><path fill="#ffffff" d="M 226.195312 118.683594 L 119.609375 118.683594 C 119.578125 120.410156 118.175781 121.796875 116.441406 121.796875 L 117.035156 121.796875 L 117.035156 122.992188 L 115.839844 122.992188 L 115.839844 121.796875 L 116.433594 121.796875 C 114.703125 121.796875 113.296875 120.40625 113.265625 118.683594 L 82.929688 118.683594 C 78.535156 118.683594 74.976562 122.242188 74.976562 126.636719 L 74.976562 144.132812 C 77.449219 144.132812 79.453125 146.136719 79.453125 148.609375 C 79.453125 151.082031 77.449219 153.085938 74.976562 153.085938 L 74.976562 170.371094 C 74.976562 174.765625 78.535156 178.324219 82.929688 178.324219 L 113.28125 178.324219 C 113.414062 176.695312 114.777344 175.421875 116.441406 175.421875 L 115.84375 175.421875 L 115.84375 174.226562 L 117.039062 174.226562 L 117.039062 175.421875 L 116.441406 175.421875 C 118.101562 175.421875 119.460938 176.695312 119.601562 178.324219 L 226.195312 178.324219 C 230.585938 178.324219 234.144531 174.765625 234.144531 170.371094 L 234.144531 153.085938 C 231.671875 153.085938 229.667969 151.082031 229.667969 148.609375 C 229.667969 146.136719 231.671875 144.132812 234.144531 144.132812 L 234.144531 126.636719 C 234.144531 122.242188 230.585938 118.683594 226.195312 118.683594 Z M 117.039062 171.789062 L 115.84375 171.789062 L 115.84375 169.347656 L 117.039062 169.347656 Z M 117.039062 166.910156 L 115.84375 166.910156 L 115.84375 164.46875 L 117.039062 164.46875 Z M 117.039062 162.035156 L 115.84375 162.035156 L 115.84375 159.59375 L 117.039062 159.59375 Z M 117.039062 157.15625 L 115.84375 157.15625 L 115.84375 154.714844 L 117.039062 154.714844 Z M 117.039062 152.277344 L 115.84375 152.277344 L 115.84375 149.835938 L 117.039062 149.835938 Z M 117.039062 147.398438 L 115.84375 147.398438 L 115.84375 144.957031 L 117.039062 144.957031 Z M 117.039062 142.519531 L 115.84375 142.519531 L 115.84375 140.078125 L 117.039062 140.078125 Z M 117.039062 137.640625 L 115.84375 137.640625 L 115.84375 135.199219 L 117.039062 135.199219 Z M 117.039062 132.761719 L 115.84375 132.761719 L 115.84375 130.320312 L 117.039062 130.320312 Z M 117.039062 127.882812 L 115.84375 127.882812 L 115.84375 125.441406 L 117.039062 125.441406 Z M 117.039062 127.882812 " fill-opacity="1" fill-rule="nonzero"/></g><path fill="#433d60" d="M 115.84375 122.992188 L 117.039062 122.992188 L 117.039062 121.796875 L 115.84375 121.796875 Z M 115.84375 122.992188 " fill-opacity="1" fill-rule="nonzero"/><path fill="#433d60" d="M 115.84375 140.074219 L 117.039062 140.074219 L 117.039062 142.515625 L 115.84375 142.515625 Z M 115.84375 140.074219 " fill-opacity="1" fill-rule="nonzero"/><path fill="#433d60" d="M 115.84375 144.953125 L 117.039062 144.953125 L 117.039062 147.394531 L 115.84375 147.394531 Z M 115.84375 144.953125 " fill-opacity="1" fill-rule="nonzero"/><path fill="#433d60" d="M 115.84375 149.832031 L 117.039062 149.832031 L 117.039062 152.273438 L 115.84375 152.273438 Z M 115.84375 149.832031 " fill-opacity="1" fill-rule="nonzero"/><path fill="#433d60" d="M 115.84375 125.433594 L 117.039062 125.433594 L 117.039062 127.875 L 115.84375 127.875 Z M 115.84375 125.433594 " fill-opacity="1" fill-rule="nonzero"/><path fill="#433d60" d="M 115.84375 135.191406 L 117.039062 135.191406 L 117.039062 137.632812 L 115.84375 137.632812 Z M 115.84375 135.191406 " fill-opacity="1" fill-rule="nonzero"/><path fill="#433d60" d="M 115.84375 130.3125 L 117.039062 130.3125 L 117.039062 132.753906 L 115.84375 132.753906 Z M 115.84375 130.3125 " fill-opacity="1" fill-rule="nonzero"/><path fill="#433d60" d="M 115.84375 164.46875 L 117.039062 164.46875 L 117.039062 166.910156 L 115.84375 166.910156 Z M 115.84375 164.46875 " fill-opacity="1" fill-rule="nonzero"/><path fill="#433d60" d="M 115.84375 169.347656 L 117.039062 169.347656 L 117.039062 171.789062 L 115.84375 171.789062 Z M 115.84375 169.347656 " fill-opacity="1" fill-rule="nonzero"/><path fill="#433d60" d="M 115.84375 154.710938 L 117.039062 154.710938 L 117.039062 157.152344 L 115.84375 157.152344 Z M 115.84375 154.710938 " fill-opacity="1" fill-rule="nonzero"/><path fill="#433d60" d="M 115.84375 159.59375 L 117.039062 159.59375 L 117.039062 162.035156 L 115.84375 162.035156 Z M 115.84375 159.59375 " fill-opacity="1" fill-rule="nonzero"/><path fill="#433d60" d="M 117.039062 174.230469 L 115.84375 174.230469 L 115.84375 175.425781 L 117.039062 175.425781 Z M 117.039062 174.230469 " fill-opacity="1" fill-rule="nonzero"/><g clip-path="url(#2c498cfe41)"><path fill="#8176af" d="M 132.578125 43.734375 C 140.074219 62.011719 148.253906 72.742188 153.46875 78.683594 C 157.589844 83.371094 180.160156 104.226562 154.144531 136.820312 C 169.601562 104.90625 164.039062 85.992188 136.40625 74.324219 L 136.40625 141.875 C 137.273438 169.699219 108.6875 171.398438 101.71875 164 C 94.519531 156.355469 111.496094 131 132.582031 139.328125 L 132.582031 43.734375 Z M 132.578125 43.734375 " fill-opacity="1" fill-rule="evenodd"/></g><path fill="#ffffff" d="M 151.582031 41.988281 C 154.34375 41.75 157.09375 43.148438 159.445312 44.679688 C 166.121094 48.742188 172.121094 54.769531 174.101562 62.210938 L 168.332031 60.261719 C 163.027344 58.050781 157.785156 55.710938 152.480469 53.5 C 149.660156 52.230469 146.257812 50.496094 146.085938 47.273438 C 145.910156 44.378906 148.6875 42.167969 151.582031 41.992188 Z M 196.128906 48.191406 C 201.125 48.191406 201.125 55.980469 196.128906 55.980469 C 191.132812 55.980469 191.132812 48.191406 196.128906 48.191406 Z M 196.128906 48.191406 " fill-opacity="1" fill-rule="nonzero"/><path fill="#c0b7e8" d="M 171.179688 10.425781 C 172.503906 7.484375 174.265625 4.546875 176.914062 2.636719 C 179.558594 0.726562 183.234375 -0.0117188 186.171875 1.609375 C 191.023438 4.253906 190.875 11.015625 189.992188 16.453125 C 187.789062 31.589844 185.585938 47.316406 190.433594 61.71875 L 191.902344 72.007812 C 182.203125 65.394531 174.265625 55.839844 170.296875 44.816406 C 166.328125 33.796875 166.476562 21.15625 171.179688 10.425781 Z M 170.203125 66.804688 C 173.839844 66.804688 173.839844 73.09375 170.203125 73.09375 C 166.566406 73.09375 166.566406 66.804688 170.203125 66.804688 Z M 170.203125 66.804688 " fill-opacity="1" fill-rule="nonzero"/><g clip-path="url(#9e4c9c21cc)"><path fill="#d9d6e6" d="M 201.019531 81.863281 C 206.933594 84.398438 214.539062 87.65625 214.417969 94.175781 C 214.296875 96.589844 213.089844 98.765625 211.398438 100.453125 C 204.15625 107.574219 190.878906 103.710938 184.960938 95.382812 C 179.046875 87.050781 178.320312 76.308594 177.839844 66.046875 L 179.046875 66.652344 C 185.203125 73.292969 192.6875 78.359375 201.015625 81.859375 Z M 201.019531 81.863281 " fill-opacity="1" fill-rule="nonzero"/></g><g fill="#d9d6e6" fill-opacity="1"><g transform="translate(14.400544, 243.97846)"><g><path d="M 33.09375 -30.0625 C 31.9375 -30.0625 31.71875 -30.28125 29.5 -30.359375 C 29.203125 -30.359375 28.84375 -30.359375 28.5625 -30.359375 C 27.484375 -30.28125 25.96875 -29.921875 25.96875 -27.125 L 25.96875 -25.46875 C 25.96875 -23.890625 25.53125 -21.21875 26.40625 -20.578125 C 26.828125 -20.21875 27.34375 -20.359375 27.90625 -20.4375 L 28.921875 -20.5 C 29.34375 -20.5 30.28125 -20.5 31 -19.421875 C 31.71875 -18.34375 31.65625 -15.96875 31.65625 -14.96875 C 31.65625 -13.953125 31.4375 -12.875 30.796875 -12.15625 C 30.0625 -11.359375 28.984375 -11.15625 28.0625 -11.15625 C 24.53125 -11.15625 22.015625 -11.9375 20.140625 -13.015625 C 16.546875 -15.03125 15.390625 -17.125 14.453125 -18.984375 C 13.59375 -20.640625 12.65625 -22.515625 12.65625 -25.25 C 12.65625 -28.484375 13.375 -30.28125 13.734375 -31.15625 C 15.109375 -34.09375 16.984375 -35.890625 19.421875 -36.90625 C 21.578125 -37.765625 24.171875 -38.125 26.40625 -38.125 C 28.921875 -38.125 31.71875 -37.625 32.953125 -37.328125 C 34.3125 -37.046875 36.328125 -36.328125 37.625 -36.328125 C 39.140625 -36.328125 39.921875 -37.265625 39.859375 -38.921875 L 39.78125 -41.078125 C 39.703125 -43.15625 39.78125 -44.453125 39.0625 -45.75 C 38.421875 -46.96875 37.40625 -47.484375 35.609375 -47.765625 C 35.03125 -47.84375 32.875 -48.125 26.984375 -48.125 C 15.890625 -48.125 11.578125 -45.828125 8.265625 -42.796875 C 1.578125 -36.765625 1.359375 -29.5 1.359375 -27.265625 C 1.359375 -21.875 3.015625 -15.171875 5.75 -11.15625 C 9.71875 -5.390625 18.421875 -0.859375 24.25 -0.140625 C 26.328125 0.140625 31 0.21875 32.65625 0.21875 L 35.03125 0.21875 C 36.046875 0.21875 37.046875 0.140625 38.203125 0 C 38.984375 0 40.0625 -0.28125 40.578125 -1.15625 C 41.140625 -2.09375 41.515625 -4.25 41.515625 -10 C 41.515625 -12.296875 41.359375 -14.609375 41.359375 -16.828125 C 41.359375 -20.21875 41.65625 -23.53125 41.515625 -27.046875 C 41.515625 -27.84375 41.4375 -29.140625 40.421875 -29.859375 C 39.203125 -30.71875 37.484375 -30.0625 35.25 -30.0625 Z M 33.09375 -30.0625 "/></g></g></g><g fill="#d9d6e6" fill-opacity="1"><g transform="translate(58.78486, 243.97846)"><g><path d="M 2.59375 -4.3125 C 2.59375 -3.234375 2.453125 -1.15625 3.015625 -0.5 C 3.09375 -0.359375 3.53125 0 4.96875 0 L 6.265625 0 L 7.625 -0.078125 L 10.859375 0 C 12.375 0 12.8125 -0.578125 12.953125 -0.9375 C 13.234375 -1.578125 13.375 -2.65625 13.375 -6.265625 C 13.375 -6.40625 13.375 -6.546875 13.375 -6.6875 C 13.375 -6.765625 13.375 -6.90625 13.375 -6.984375 C 13.375 -10.28125 13.171875 -9 13.171875 -11.21875 L 13.171875 -15.328125 C 13.171875 -17.046875 12.953125 -18.484375 12.953125 -20.9375 C 12.953125 -21.296875 12.953125 -21.65625 12.953125 -22.015625 C 12.953125 -22.234375 12.953125 -22.375 12.953125 -22.59375 C 12.953125 -23.734375 12.953125 -24.8125 12.953125 -25.96875 C 12.953125 -29.203125 13.09375 -29.5625 13.171875 -30.5 L 13.234375 -32.015625 C 13.3125 -32.875 12.875 -33.375 12.65625 -33.59375 C 12.15625 -34.03125 11.515625 -34.09375 10.9375 -34.09375 L 10.28125 -34.09375 C 8.625 -34.09375 8.125 -33.875 7.484375 -33.953125 L 5.828125 -34.09375 L 4.671875 -34.09375 C 3.53125 -34.09375 3.015625 -33.734375 2.8125 -33.453125 C 2.59375 -33.15625 2.515625 -32.515625 2.515625 -31.15625 L 2.515625 -28.5625 C 2.515625 -26.765625 2.515625 -25.03125 2.59375 -23.234375 C 2.65625 -20.21875 2.734375 -17.1875 2.734375 -14.171875 C 2.734375 -11.21875 2.734375 -10.5 2.734375 -9.859375 Z M 2.59375 -40 C 2.59375 -39.421875 2.8125 -38.625 2.953125 -38.265625 C 3.3125 -37.484375 3.953125 -37.40625 5.25 -37.40625 L 10.640625 -37.40625 C 12.078125 -37.40625 12.4375 -37.90625 12.65625 -38.265625 C 12.8125 -38.484375 13.015625 -38.703125 13.015625 -39.421875 C 13.015625 -39.5625 13.015625 -39.703125 13.015625 -39.859375 C 13.015625 -40.21875 13.015625 -41.71875 13.015625 -42.296875 L 13.09375 -45.03125 C 13.09375 -45.609375 13.015625 -46.109375 12.515625 -46.46875 C 11.9375 -46.90625 11.15625 -46.96875 10.578125 -46.96875 L 8.421875 -46.96875 C 6.765625 -46.96875 4.453125 -46.828125 3.53125 -46.46875 C 2.953125 -46.25 2.59375 -45.75 2.59375 -43.59375 Z M 2.59375 -40 "/></g></g></g><g fill="#d9d6e6" fill-opacity="1"><g transform="translate(74.682642, 243.97846)"><g><path d="M 12.015625 0.21875 C 13.453125 0.21875 14.96875 0.28125 16.40625 -0.796875 C 16.90625 -1.15625 17.484375 -1.65625 17.484375 -2.953125 C 17.484375 -3.3125 17.484375 -3.734375 17.40625 -4.09375 C 17.34375 -4.8125 17.34375 -5.46875 17.34375 -6.1875 L 17.40625 -8.0625 C 17.40625 -8.421875 17.1875 -8.921875 16.984375 -9.203125 C 16.828125 -9.421875 16.546875 -9.78125 15.828125 -9.859375 L 15.328125 -9.921875 C 14.96875 -10 14.3125 -10.078125 13.890625 -10.5 C 13.3125 -11 13.3125 -11.71875 13.3125 -15.828125 L 13.3125 -19.78125 C 13.3125 -22.59375 13.453125 -24.453125 15.6875 -24.75 L 17.1875 -24.96875 C 17.34375 -24.96875 17.84375 -25.109375 18.0625 -25.609375 C 18.203125 -25.96875 18.34375 -28.421875 18.34375 -28.703125 L 18.34375 -29.5625 C 18.34375 -31.359375 18.625 -32.078125 17.84375 -33.09375 C 17.40625 -33.59375 17.125 -33.734375 16.1875 -33.734375 L 15.109375 -33.734375 C 14.609375 -33.734375 13.671875 -33.734375 13.671875 -34.75 L 13.671875 -39.421875 C 13.671875 -40 13.8125 -40.71875 13.234375 -41.4375 C 12.734375 -42.078125 12.234375 -42.015625 11.71875 -42.015625 L 6.625 -42.234375 C 5.546875 -42.296875 4.671875 -42.015625 4.25 -41.71875 C 3.8125 -41.515625 3.375 -41 3.375 -40.578125 L 3.59375 -34.453125 C 3.59375 -34.09375 3.375 -34.03125 3.234375 -34.03125 L 2.65625 -33.953125 C 1.71875 -33.8125 1.65625 -33.875 1.15625 -33.453125 C 0.9375 -33.234375 0.578125 -32.875 0.578125 -32.015625 L 0.71875 -28.203125 L 0.640625 -27.046875 C 0.578125 -26.40625 0.796875 -25.46875 1.4375 -25.109375 C 2.015625 -24.8125 2.375 -25.03125 2.734375 -24.53125 C 3.09375 -24.09375 3.234375 -23.59375 3.171875 -20.4375 L 3.015625 -9.859375 C 2.953125 -6.328125 3.8125 -4.3125 4.25 -3.375 C 4.671875 -2.453125 5.46875 -0.9375 7.046875 -0.21875 C 8.34375 0.359375 9.859375 0.21875 11.078125 0.21875 Z M 12.015625 0.21875 "/></g></g></g><g fill="#d9d6e6" fill-opacity="1"><g transform="translate(94.10527, 243.97846)"><g><path d="M 32.15625 -22.296875 L 32.078125 -24.3125 C 32.015625 -26.109375 32.015625 -28.484375 29.640625 -30.859375 C 26.25 -34.25 22.234375 -34.53125 17.703125 -34.53125 C 13.734375 -34.53125 12.15625 -34.390625 10.5 -34.03125 C 9 -33.671875 8.84375 -33.59375 6.625 -32.65625 C 5.609375 -32.234375 4.75 -32.015625 4.3125 -31.296875 C 4.25 -31.15625 3.953125 -30.640625 3.953125 -28.625 L 3.953125 -27.1875 C 3.953125 -26.328125 3.890625 -25.75 3.890625 -24.75 C 3.890625 -23.890625 4.171875 -22.65625 6.46875 -23.09375 C 7.1875 -23.234375 7.765625 -23.53125 9.5625 -24.03125 C 11.4375 -24.53125 11.9375 -24.671875 12.4375 -24.8125 C 13.671875 -25.109375 16.265625 -25.390625 17.40625 -25.390625 C 19.421875 -25.390625 20.859375 -24.890625 21.578125 -24.25 C 22.015625 -23.890625 22.375 -23.234375 22.375 -22.734375 C 22.375 -22.515625 22.234375 -22.15625 22.078125 -22.015625 C 21.71875 -21.578125 21.21875 -21.578125 21 -21.578125 C 20.21875 -21.578125 19.5625 -21.796875 18.703125 -21.875 C 18.265625 -21.9375 16.765625 -22.015625 16.1875 -22.015625 C 11.4375 -22.015625 7.703125 -21.359375 4.890625 -19.0625 C 1.65625 -16.40625 1.21875 -13.171875 1.21875 -10.9375 C 1.21875 -7.625 2.453125 -3.890625 5.46875 -1.71875 C 8.484375 0.4375 11 0.4375 13.671875 0.5 C 15.75 0.578125 19.203125 0.71875 21.21875 -0.796875 C 21.578125 -1.078125 22.15625 -1.578125 22.375 -1.296875 L 23.09375 -0.21875 C 23.234375 0 23.375 0.21875 23.734375 0.21875 C 23.8125 0.21875 23.890625 0.21875 23.953125 0.21875 C 24.25 0.21875 24.53125 0.078125 24.8125 0.078125 C 25.171875 0 25.609375 0.078125 25.96875 0.078125 L 29.203125 0 C 29.859375 0 30.796875 -0.078125 31.4375 -0.578125 C 31.875 -0.9375 32.15625 -1.65625 32.15625 -3.734375 C 32.15625 -4.3125 32.078125 -4.890625 32.078125 -5.46875 C 32.078125 -5.96875 32.15625 -6.40625 32.15625 -6.90625 C 32.15625 -7.984375 31.9375 -9.0625 32.015625 -10.140625 L 32.15625 -14.3125 Z M 11.71875 -10.71875 C 11.71875 -12.234375 12.734375 -13.015625 13.59375 -13.375 C 14.671875 -13.890625 16.1875 -14.03125 17.34375 -14.03125 C 19.5 -14.03125 20.578125 -13.453125 21.21875 -12.953125 C 21.875 -12.375 22.15625 -11.875 22.15625 -10.9375 C 22.15625 -10.5 22.078125 -9.78125 21.4375 -9 C 20.578125 -7.984375 19.140625 -7.765625 17.546875 -7.765625 C 16.40625 -7.765625 14.671875 -7.90625 13.453125 -8.421875 C 12.59375 -8.78125 11.71875 -9.359375 11.71875 -10.71875 Z M 11.71875 -10.71875 "/></g></g></g><g fill="#d9d6e6" fill-opacity="1"><g transform="translate(128.562458, 243.97846)"><g/></g></g><g fill="#d9d6e6" fill-opacity="1"><g transform="translate(145.323474, 243.97846)"><g><path d="M 10.9375 0.078125 C 11.4375 0.078125 11.515625 0.078125 11.875 0.140625 C 13.453125 0.359375 15.328125 0.4375 15.328125 -1.296875 C 15.328125 -1.71875 15.25 -2.09375 15.109375 -2.515625 C 15.03125 -3.015625 14.96875 -3.375 14.96875 -4.171875 L 14.96875 -8.125 C 14.96875 -8.265625 14.96875 -9.140625 15.609375 -9.859375 C 16.109375 -10.4375 17.046875 -10.5 17.265625 -10.5 C 17.84375 -10.5 18.125 -10.5 18.78125 -10.28125 C 20.140625 -9.78125 20.359375 -9.140625 21.515625 -8.421875 L 23.375 -7.265625 C 23.453125 -7.1875 23.453125 -7.125 23.890625 -6.90625 C 24.171875 -6.625 24.3125 -6.46875 24.453125 -6.328125 L 25.609375 -5.03125 C 26.609375 -3.890625 27.703125 -3.171875 29.640625 -1.515625 C 30.21875 -1 30.640625 -0.640625 31.078125 -0.359375 C 32.234375 0.359375 33.734375 0.359375 34.25 0.359375 C 34.890625 0.359375 36.328125 0.078125 36.90625 -0.359375 C 37.625 -0.9375 37.546875 -1.796875 37.625 -3.8125 L 37.6875 -5.96875 C 37.6875 -6.984375 37.84375 -8.265625 37.84375 -9.28125 C 37.84375 -9.78125 37.765625 -10.640625 37.40625 -11.078125 C 37.046875 -11.4375 36.46875 -11.578125 35.390625 -12.015625 C 34.453125 -12.375 33.015625 -12.953125 31.359375 -14.390625 C 30.5 -15.109375 30.359375 -15.46875 30.359375 -16.109375 C 30.359375 -16.765625 30.578125 -17.1875 31 -17.703125 C 32.953125 -20.140625 33.375 -20.078125 34.75 -21.9375 C 34.890625 -22.078125 34.96875 -22.296875 35.109375 -22.4375 C 35.171875 -22.59375 35.328125 -22.65625 35.390625 -22.796875 C 37.1875 -25.109375 38.0625 -29.703125 38.0625 -32.65625 C 38.0625 -38.625 35.6875 -42.515625 32.59375 -44.75 C 28.265625 -47.90625 23.234375 -48.125 19.34375 -48.125 C 18.921875 -48.125 18.5625 -48.203125 18.125 -48.203125 C 15.390625 -48.203125 16.328125 -48.046875 11.4375 -48.203125 L 6.828125 -48.34375 C 6.109375 -48.34375 4.96875 -48.046875 4.53125 -47.6875 C 3.734375 -47.046875 3.734375 -46.109375 3.734375 -45.75 L 3.890625 -37.625 C 3.953125 -34.171875 3.671875 -32.796875 3.59375 -29.0625 C 3.53125 -26.6875 3.671875 -24.390625 3.59375 -22.015625 C 3.53125 -20.796875 3.453125 -19.640625 3.453125 -18.421875 C 3.453125 -18.125 3.453125 -17.90625 3.453125 -17.765625 C 3.53125 -15.828125 3.734375 -15.46875 3.671875 -11.796875 L 3.59375 -8.921875 C 3.59375 -8.5625 3.53125 -8.203125 3.53125 -7.84375 C 3.453125 -7.1875 3.375 -6.625 3.375 -5.96875 C 3.375 -5.109375 3.453125 -4.3125 3.453125 -3.453125 C 3.453125 -2.875 3.375 -2.375 3.375 -1.796875 C 3.375 0.4375 5.171875 0.28125 6.40625 0.21875 Z M 14.890625 -27.34375 C 14.890625 -27.84375 14.96875 -29.28125 14.96875 -29.703125 C 15.171875 -32.375 14.96875 -32.4375 14.96875 -33.8125 C 14.96875 -34.75 15.171875 -35.609375 15.328125 -35.96875 C 15.828125 -37.1875 17.484375 -37.328125 18.78125 -37.328125 C 20.859375 -37.328125 23.59375 -37.046875 25.03125 -35.75 C 26.1875 -34.75 26.765625 -33.015625 26.765625 -31.4375 C 26.765625 -28.125 24.75 -25.53125 23.953125 -24.609375 C 23.15625 -23.671875 20.859375 -21.15625 17.546875 -21.15625 C 16.984375 -21.15625 16.265625 -21.296875 15.890625 -21.515625 C 15.46875 -21.71875 15.171875 -22.4375 15.109375 -23.375 Z M 14.890625 -27.34375 "/></g></g></g><g fill="#d9d6e6" fill-opacity="1"><g transform="translate(185.607454, 243.97846)"><g><path d="M 2.515625 -15.890625 C 2.515625 -12.59375 2.296875 -14.03125 2.296875 -11.515625 C 2.296875 -11.359375 2.296875 -11.15625 2.296875 -11 C 2.296875 -10.859375 2.296875 -10.796875 2.296875 -10.640625 C 2.296875 -6.828125 3.015625 -5.109375 3.8125 -3.890625 C 6.1875 -0.28125 9.203125 0.5 12.015625 0.5 C 13.734375 0.5 16.328125 0.078125 18.0625 -0.640625 C 18.421875 -0.796875 20.21875 -1.65625 20.796875 -1.65625 C 21.15625 -1.65625 21.4375 -1.578125 21.71875 -1.21875 C 22.078125 -0.796875 22.078125 -0.578125 22.4375 -0.21875 C 22.734375 0.078125 23.09375 0.28125 23.59375 0.28125 L 24.03125 0.28125 C 24.609375 0.28125 25.25 0.359375 25.828125 0.359375 C 26.90625 0.4375 27.984375 0.4375 29.0625 0.4375 C 30 0.4375 31.15625 0.4375 31.9375 -0.359375 C 32.59375 -1 32.65625 -1.875 32.65625 -2.65625 L 32.65625 -3.015625 C 32.65625 -3.3125 32.59375 -3.671875 32.515625 -3.953125 C 32.4375 -4.453125 32.375 -5.03125 32.375 -5.546875 L 32.375 -5.96875 C 32.375 -6.6875 32.234375 -6.1875 32.4375 -7.484375 C 32.59375 -8.265625 32.515625 -9.203125 32.65625 -12.515625 L 32.875 -16.6875 L 32.875 -26.6875 L 32.953125 -30.140625 C 32.953125 -31.21875 33.234375 -32.515625 32.515625 -33.375 C 32.15625 -33.8125 31.65625 -33.875 31.21875 -33.875 C 30.796875 -33.875 30.28125 -33.8125 29.859375 -33.8125 C 29.703125 -33.8125 29.5625 -33.8125 29.421875 -33.8125 C 28.703125 -33.8125 28.84375 -33.953125 26.40625 -33.953125 L 25.171875 -33.953125 C 24.25 -33.953125 23.53125 -33.734375 22.875 -33.015625 C 22.15625 -32.15625 22.15625 -31.359375 22.15625 -30.578125 C 22.15625 -30.0625 22.15625 -29.703125 22.234375 -28.84375 L 22.4375 -26.609375 C 22.4375 -26.328125 22.515625 -26.328125 22.515625 -25.828125 C 22.4375 -24.3125 22.515625 -24.75 22.515625 -23.234375 L 22.4375 -19.421875 C 22.4375 -18.0625 22.515625 -16.828125 22.234375 -14.53125 C 22.015625 -12.734375 21.4375 -12.15625 20.9375 -11.65625 C 20.21875 -10.9375 18.921875 -9.921875 17.125 -9.921875 C 15.75 -9.921875 15.03125 -10.5 14.53125 -11 C 13.734375 -11.71875 12.375 -13.375 12.515625 -16.6875 L 12.734375 -21.578125 C 12.734375 -22.234375 12.8125 -22.375 12.8125 -23.015625 C 12.8125 -23.09375 12.8125 -23.234375 12.8125 -23.3125 C 12.8125 -23.953125 12.875 -24.671875 12.875 -25.328125 L 13.015625 -29.859375 C 13.09375 -33.15625 13.171875 -33.015625 12.4375 -33.515625 C 12.15625 -33.734375 12.078125 -33.671875 11.9375 -33.671875 C 11.65625 -33.671875 11.359375 -33.734375 11.078125 -33.8125 C 10.5 -33.953125 9.859375 -33.875 9.28125 -33.875 L 5.03125 -34.03125 C 4.390625 -34.03125 3.671875 -33.953125 2.953125 -33.09375 C 2.59375 -32.65625 2.375 -31.9375 2.375 -31.078125 Z M 2.515625 -15.890625 "/></g></g></g><g fill="#d9d6e6" fill-opacity="1"><g transform="translate(221.21561, 243.97846)"><g><path d="M 5.328125 -34.25 C 4.75 -34.25 4.25 -34.3125 3.53125 -33.8125 C 2.8125 -33.3125 2.734375 -32.734375 2.734375 -28.984375 L 2.8125 -19.640625 C 2.875 -12.65625 2.515625 -10.859375 2.59375 -7.546875 L 2.65625 -5.25 C 2.65625 -5.109375 2.65625 -5.03125 2.65625 -4.890625 C 2.65625 -4.53125 2.734375 -4.171875 2.734375 -3.8125 C 2.734375 -3.734375 2.734375 -3.59375 2.734375 -3.53125 C 2.734375 -3.171875 2.734375 -2.734375 2.734375 -2.375 C 2.734375 -1.71875 2.65625 -1.15625 2.59375 -0.21875 C 2.515625 0.21875 2.515625 0.578125 2.515625 0.9375 C 2.515625 1.875 2.65625 2.875 2.59375 3.8125 L 2.515625 4.96875 C 2.375 6.828125 3.453125 6.90625 4.03125 6.90625 C 5.46875 6.90625 5.6875 6.765625 6.265625 6.765625 C 6.546875 6.765625 6.828125 6.90625 7.125 6.90625 L 9.640625 6.90625 C 10.640625 6.90625 10.9375 6.90625 12.234375 6.546875 C 12.734375 6.40625 12.875 6.1875 12.953125 5.75 C 13.09375 5.03125 12.953125 4.671875 12.953125 4.03125 L 12.875 -0.28125 C 12.875 -1.078125 13.453125 -1.21875 13.8125 -1.21875 C 14.09375 -1.21875 14.3125 -1.15625 14.53125 -1.078125 C 16.828125 -0.28125 16.109375 -0.4375 17.1875 0.078125 C 17.984375 0.4375 19.34375 0.859375 22.515625 0.859375 C 24.25 0.859375 32.59375 0.5 36.6875 -8.84375 C 37.265625 -10.140625 38.203125 -12.515625 38.203125 -17.984375 C 38.203125 -21.15625 37.546875 -24.171875 35.109375 -27.90625 C 33.671875 -30.0625 32.515625 -31 31.078125 -31.875 C 26.984375 -34.3125 24.3125 -34.53125 22.59375 -34.53125 C 20.71875 -34.53125 17.703125 -34.25 15.75 -32.875 C 15.390625 -32.65625 14.890625 -31.9375 14.09375 -31.9375 C 13.8125 -31.9375 13.453125 -31.9375 13.171875 -32.4375 C 12.953125 -32.734375 12.375 -33.734375 12.078125 -33.953125 C 11.65625 -34.3125 10.4375 -34.390625 8.34375 -34.3125 Z M 20.078125 -24.75 C 21.875 -24.75 24.25 -23.890625 25.46875 -22.734375 C 26.984375 -21.359375 28.0625 -18.484375 28.0625 -16.46875 C 28.0625 -14.453125 27.40625 -13.3125 26.984375 -12.65625 C 25.328125 -10.21875 22.4375 -8.703125 20.5 -8.703125 C 18.5625 -8.703125 15.171875 -10.28125 13.953125 -12.015625 C 13.171875 -13.171875 12.953125 -14.671875 12.953125 -15.828125 C 12.875 -18.5625 13.234375 -20.4375 14.96875 -22.296875 C 16.40625 -23.890625 18.265625 -24.75 20.078125 -24.75 Z M 20.078125 -24.75 "/></g></g></g><g fill="#d9d6e6" fill-opacity="1"><g transform="translate(260.276692, 243.97846)"><g><path d="M 32.15625 -22.296875 L 32.078125 -24.3125 C 32.015625 -26.109375 32.015625 -28.484375 29.640625 -30.859375 C 26.25 -34.25 22.234375 -34.53125 17.703125 -34.53125 C 13.734375 -34.53125 12.15625 -34.390625 10.5 -34.03125 C 9 -33.671875 8.84375 -33.59375 6.625 -32.65625 C 5.609375 -32.234375 4.75 -32.015625 4.3125 -31.296875 C 4.25 -31.15625 3.953125 -30.640625 3.953125 -28.625 L 3.953125 -27.1875 C 3.953125 -26.328125 3.890625 -25.75 3.890625 -24.75 C 3.890625 -23.890625 4.171875 -22.65625 6.46875 -23.09375 C 7.1875 -23.234375 7.765625 -23.53125 9.5625 -24.03125 C 11.4375 -24.53125 11.9375 -24.671875 12.4375 -24.8125 C 13.671875 -25.109375 16.265625 -25.390625 17.40625 -25.390625 C 19.421875 -25.390625 20.859375 -24.890625 21.578125 -24.25 C 22.015625 -23.890625 22.375 -23.234375 22.375 -22.734375 C 22.375 -22.515625 22.234375 -22.15625 22.078125 -22.015625 C 21.71875 -21.578125 21.21875 -21.578125 21 -21.578125 C 20.21875 -21.578125 19.5625 -21.796875 18.703125 -21.875 C 18.265625 -21.9375 16.765625 -22.015625 16.1875 -22.015625 C 11.4375 -22.015625 7.703125 -21.359375 4.890625 -19.0625 C 1.65625 -16.40625 1.21875 -13.171875 1.21875 -10.9375 C 1.21875 -7.625 2.453125 -3.890625 5.46875 -1.71875 C 8.484375 0.4375 11 0.4375 13.671875 0.5 C 15.75 0.578125 19.203125 0.71875 21.21875 -0.796875 C 21.578125 -1.078125 22.15625 -1.578125 22.375 -1.296875 L 23.09375 -0.21875 C 23.234375 0 23.375 0.21875 23.734375 0.21875 C 23.8125 0.21875 23.890625 0.21875 23.953125 0.21875 C 24.25 0.21875 24.53125 0.078125 24.8125 0.078125 C 25.171875 0 25.609375 0.078125 25.96875 0.078125 L 29.203125 0 C 29.859375 0 30.796875 -0.078125 31.4375 -0.578125 C 31.875 -0.9375 32.15625 -1.65625 32.15625 -3.734375 C 32.15625 -4.3125 32.078125 -4.890625 32.078125 -5.46875 C 32.078125 -5.96875 32.15625 -6.40625 32.15625 -6.90625 C 32.15625 -7.984375 31.9375 -9.0625 32.015625 -10.140625 L 32.15625 -14.3125 Z M 11.71875 -10.71875 C 11.71875 -12.234375 12.734375 -13.015625 13.59375 -13.375 C 14.671875 -13.890625 16.1875 -14.03125 17.34375 -14.03125 C 19.5 -14.03125 20.578125 -13.453125 21.21875 -12.953125 C 21.875 -12.375 22.15625 -11.875 22.15625 -10.9375 C 22.15625 -10.5 22.078125 -9.78125 21.4375 -9 C 20.578125 -7.984375 19.140625 -7.765625 17.546875 -7.765625 C 16.40625 -7.765625 14.671875 -7.90625 13.453125 -8.421875 C 12.59375 -8.78125 11.71875 -9.359375 11.71875 -10.71875 Z M 11.71875 -10.71875 "/></g></g></g></svg>